<svg xmlns="http://www.w3.org/2000/svg" viewBox="0 0 261.3 206.2"><style>.st7{fill:#fff}</style><linearGradient id="SVGID_1_" x1="-300" x2="-299.3" y1="703.6" y2="702.9" gradientUnits="userSpaceOnUse"><stop offset="0" stop-color="#20ac4b"/><stop offset="1" stop-color="#19361a"/></linearGradient><g id="Layer_1"><path fill="#ffda19" d="M204.8 63.7c-2.1 0-4.2.1-6.2.3a103 103 0 01-1.2 80.7 31.7 31.7 0 0114.1 31.5 56.5 56.5 0 00-6.7-112.5"/><path fill="#20c4f4" d="M103.1 0a103.2 103.2 0 1053.2 191.4 31.7 31.7 0 01.6-41A56.4 56.4 0 01198.5 64a103 103 0 00-95.4-64"/><path fill="#20a818" d="M198.6 64.1a56.5 56.5 0 00-41.6 86.4 31.5 31.5 0 0140.4-5.6 102.2 102.2 0 001.2-80.8"/><path fill="#f7942d" d="M180.5 171.3a106 106 0 01-24.1 20.2 31 31 0 0024.2 11.2c15 0 28.3-10.8 30.9-26.2v-.2a56.5 56.5 0 01-31-5"/><path fill="#f77f03" d="M197.4 144.8c-4.3 9.7-10 18.6-16.9 26.4a56.6 56.6 0 0031 5.1 31.3 31.3 0 00-14.1-31.5"/><path fill="#1f721d" d="M157 150.4a31.2 31.2 0 00-.6 41 104 104 0 0024.1-20.2 56.3 56.3 0 01-23.5-20.8"/><path fill="#1f6203" d="M180.4 139.9c-9.1 0-17.6 4-23.4 10.5 5.7 9 13.8 16.2 23.5 20.9 6.9-7.8 12.6-16.7 16.9-26.4a31.4 31.4 0 00-17-5"/><g><path d="M26 89.4h4.5l6.9-29.6h-5.1l1.1-4.8H49l-1.1 4.8h-5.1l-6.9 29.6H48l1.4-5.8h5.2l-2.4 10.6H24.8l1.2-4.8zM56.5 89.5c0-.8.2-1.9.4-2.8L60.5 73h-4.8l1.1-4.4h10.1l-4.8 18.2c-.3 1-.4 2-.4 2.6 0 1.1.6 1.8 1.5 1.8 1.2 0 2.3-.9 3.5-4.2l2.3.8c-1.5 5.1-4.1 6.9-7.2 6.9-3.4 0-5.3-2.1-5.3-5.2zm5-28.7c0-1.9 1.5-3.5 3.5-3.5 1.8 0 3.5 1.6 3.5 3.5s-1.6 3.5-3.5 3.5c-2-.1-3.5-1.6-3.5-3.5zM73.1 73h-4.5l1.1-4.4h7.9l3 20.4c4.6-4.9 7.9-10 8.9-13.9-1.3-.5-2.5-1.6-2.5-3.4 0-2 1.6-3.6 3.6-3.6 2.3 0 3.9 1.7 3.9 4.6 0 5.4-5.6 14-13.9 22.3h-3.4l-4.1-22zM97.6 89.5c0-.8.2-1.9.4-2.8l3.6-13.7h-4.8l1.1-4.4H108l-4.8 18.2c-.3 1-.4 2-.4 2.6 0 1.1.6 1.8 1.6 1.8 1.2 0 2.3-.9 3.5-4.2l2.3.8c-1.5 5.1-4.1 6.9-7.2 6.9-3.5 0-5.4-2.1-5.4-5.2zm5-28.7c0-1.9 1.6-3.5 3.5-3.5 1.8 0 3.5 1.6 3.5 3.5s-1.6 3.5-3.5 3.5c-1.9-.1-3.5-1.6-3.5-3.5zM127.9 89.5c0-.8.2-2 .4-2.9l2.2-7.7c.3-1 .4-1.8.4-2.6 0-2.3-1.6-3.8-3.9-3.8-3.2 0-6.1 2.7-7.5 7.8L116 94.2h-5.2l5.4-21.3h-4.8l1.1-4.4h9.2l-1.4 6c2-3.6 5.4-6.4 8.9-6.4 3.9 0 7 2.7 7 7.3 0 1.3-.2 2.7-.7 4.2l-2.2 7.6-.4 2.1c0 1.2.6 1.9 1.6 1.9s2.1-.9 3.3-4.2l2.3.8c-1.4 4.6-3.8 6.9-7 6.9s-5.2-2.2-5.2-5.2z" class="st7"/><path d="M140 103.2a4.4 4.4 0 01-1.5-3.3c0-2.1 1.4-3.5 3.3-3.5 1.8 0 3.2 1.5 3.2 3.2 0 .5-.1 1.1-.4 1.5.8.5 2.3 1 4.3 1 2.4 0 4.2-.7 5.7-2.1 1.4-1.3 2.2-3.4 2.9-6.2l1.1-4.8c-2.2 3.1-5.3 5.1-8.8 5.1-5.8 0-9.4-4.1-9.4-10.3 0-8.3 5.8-15.6 13.6-15.6 4.4 0 7 3 7.9 5.8l1.6-5.5h4.8L162.2 95c-.8 3.5-1.8 6-3.8 8a12.7 12.7 0 01-9.4 3.3c-3.5-.1-7.4-1.6-9-3.1zm20.9-24.4c0-3.8-2.5-6.1-6.2-6.1-5 0-8.8 4.8-8.8 10.6 0 3.8 2.5 6.2 6.1 6.2 5 0 8.9-5.1 8.9-10.7zM58.9 104.7h-4.2l1.1-4.8h14.4l-1.1 4.8h-4.9l1.2 24.7 14.5-25.2h2.6l4.4 25.3 12-24.8h-4.8l1.1-4.8h14.5l-1.1 4.8h-3.8L87 139.5h-3l-4.7-25-15.1 25-2.9.1-2.4-34.9zM99 129.3c0-8.8 6.1-16.4 13.5-16.4a8 8 0 017.7 6.1l1.7-5.7h4.9l-4.5 18.3c-.3 1.1-.5 2-.5 2.6 0 1.1.5 1.8 1.5 1.8s2.1-.9 3.3-4.2l2.3.8c-1.6 5.1-4.2 6.9-7.1 6.9-3 0-4.9-2.1-4.9-5.2v-.3c-2.2 3-5.3 5.5-9.2 5.5-5 0-8.7-4-8.7-10.2zm20.1-5.5c0-3.8-1.9-6.3-5.8-6.3-5 0-8.8 5.4-8.8 11.2 0 3.8 1.8 6.4 5.4 6.4 5.2 0 9.2-5.7 9.2-11.3zM129.6 148a4.4 4.4 0 01-1.5-3.3c0-2.1 1.4-3.5 3.3-3.5a3.2 3.2 0 012.8 4.8c.8.5 2.3 1 4.3 1 2.4 0 4.2-.7 5.7-2.1 1.4-1.3 2.2-3.4 2.9-6.2l1.1-4.8c-2.2 3.1-5.3 5.1-8.8 5.1-5.8 0-9.4-4.1-9.4-10.3 0-8.3 5.8-15.6 13.6-15.6 4.4 0 7 3 7.9 5.8l1.6-5.5h4.8l-6.1 26.5c-.8 3.5-1.8 6-3.8 8a12.7 12.7 0 01-9.4 3.3c-3.6-.2-7.4-1.7-9-3.2zm20.8-24.4c0-3.8-2.5-6.1-6.2-6.1-5 0-8.8 4.8-8.8 10.6 0 3.8 2.5 6.2 6.1 6.2 5.1 0 8.9-5.1 8.9-10.7zM163 127.9v.9c0 3.9 3.1 6.4 7.7 6.4 2.7 0 5.2-.6 8.5-2.3l-1 4.9a17.5 17.5 0 01-8.5 1.8c-6.1 0-11.8-3.9-11.8-10.9 0-8.7 6.4-15.7 14.1-15.7 6.3 0 10.4 3.6 10.4 9.6 0 1.6-.3 3.4-1 5.4H163zm.7-3.8h13.4c.2-.7.4-1.5.4-2.2 0-2.7-1.8-4.6-5.5-4.6-3.8-.1-6.9 2.7-8.3 6.8z" class="st7"/></g></g><g id="Layer_2"><path d="M88.9 173.8h2.4l3.8-16.2h-2.7l.3-1.5h13.7l-1 4.3h-1.6l.7-2.9h-7.8l-1.7 7.2h6.3l-.3 1.5h-6.3l-1.8 7.6h7.8l.7-2.9h1.6l-1 4.3H88.6l.3-1.4zM108 164.4h-2.3l.3-1.3h3.8l-.8 2.9c1.2-1.9 2.7-3.2 4.4-3.2 1.9 0 3.1 1.1 3.2 3.1 1.2-1.9 2.8-3.1 4.4-3.1 1.9 0 3.2 1.4 3.2 3.2l-.3 1.9-1.3 4.3-.2 1.2c0 .6.4 1 .9 1 .6 0 1.1-.6 1.7-1.9l.9.3c-.6 1.7-1.5 2.7-2.8 2.7-1.3 0-2.2-.8-2.2-2.1l.2-1.3 1.3-4.3a5 5 0 00.3-1.7c0-1.1-.7-1.9-1.9-1.9-1.7 0-3.9 1.9-4.8 5.4l-1.5 5.8H113l1.9-7.6a5 5 0 00.3-1.7c0-1.1-.8-1.9-1.9-1.9-1.7 0-4 1.9-4.9 5.3l-1.5 5.8h-1.5l2.6-10.9z" class="st7"/><path d="M124 179.6h1.9l3.7-15.2h-2.3l.3-1.3h3.8l-.6 2.4c1-1.4 2.4-2.6 4.4-2.6 2.6 0 4.7 2 4.7 5.2 0 4.3-3.2 7.5-6.5 7.5-2 0-3.7-1.1-4.2-2.9l-1.7 7.1h2.7l-.3 1.3h-6.1l.2-1.5zm14.2-11.5c0-2.4-1.3-4-3.3-4-2.9 0-5.2 3.4-5.2 6.3 0 2.1 1.4 3.7 3.6 3.7 2.8 0 4.9-3 4.9-6zM141.6 173.4l.2-1.2 3.9-16.8h-2.3l.3-1.3h3.8l-4.2 18.2-.2 1.2c0 .6.4 1 .9 1 .6 0 1.1-.6 1.7-1.9l.9.3c-.6 1.7-1.5 2.7-2.8 2.7-1.3-.2-2.2-1-2.2-2.2zM147.8 170.2c0-3.9 3-7.4 6.9-7.4 3.2 0 5.1 2.4 5.1 5.2 0 3.9-3 7.4-6.9 7.4-3.2.1-5.1-2.3-5.1-5.2zm10.6-2.2c0-2.3-1.6-3.8-3.7-3.8-3 0-5.3 2.9-5.3 6.1 0 2.3 1.6 3.8 3.7 3.8 2.9 0 5.3-2.8 5.3-6.1z" class="st7"/><path d="M157.5 179.6c0-.7.5-1.3 1.2-1.3s1.2.5 1.2 1.3h.1c.7 0 2.3-1.1 5-4.4l-2.2-10.9h-2.3l.3-1.3h3.3l1.9 10.7c2.3-3 4.7-6.3 5.1-8.3-.6-.2-1.2-.7-1.2-1.5 0-.6.6-1.3 1.3-1.3.8 0 1.4.6 1.4 1.7 0 2.1-1.8 5-6.3 10.7-3.7 4.7-5.6 5.9-7.3 5.9-.6.2-1.5-.4-1.5-1.3zM174.9 169.5v.8c0 2.5 2.1 3.8 4.1 3.8a8 8 0 004-1.1l-.3 1.6c-1.3.6-2.3.9-3.9.9-2.8 0-5.4-1.8-5.4-5.1 0-4.1 3.2-7.6 6.8-7.6 2.8 0 4.5 1.7 4.5 4.3 0 .8-.2 1.5-.5 2.4h-9.3zm.3-1.2h7.8l.2-1.4c0-1.4-.9-2.7-3.1-2.7s-4.1 1.7-4.9 4.1zM188.8 164.4h-2.3l.3-1.3h3.8l-.8 3.3c1.6-2.2 3-3.5 4.1-3.5 1 0 1.5.6 1.5 1.3 0 .8-.6 1.4-1.4 1.4-.7 0-1.1-.4-1.3-1-1 .6-3.1 2.5-3.8 5.4l-1.3 5.4H186l2.8-11z" class="st7"/><g><path d="M55.2 31.7h-2l.3-1.5h5.9l-.3 1.5h-2.4l.4 15 7.9-14h.7l1.6 14 7.9-15h-2.3l.3-1.5H79l-.3 1.5h-1.9l-9.6 18h-.9l-1.7-13.6-7.9 13.6h-.9l-.6-18zM76.6 43.7v.8c0 2.5 2.1 3.8 4.1 3.8a8 8 0 004-1.1l-.3 1.6c-1.3.6-2.3.9-3.9.9-2.8 0-5.4-1.8-5.4-5.1 0-4.1 3.2-7.6 6.8-7.6 2.8 0 4.5 1.7 4.5 4.3 0 .8-.2 1.5-.5 2.4h-9.3zm.3-1.3h7.8l.2-1.4c0-1.4-.9-2.7-3.1-2.7s-4.2 1.8-4.9 4.1zM92.6 44.6c0-4.2 3-7.6 6.5-7.6 2.2 0 3.7 1.2 4 3.2l.7-3.1h1.5l-2.3 9.3-.2 1.2c0 .6.4 1 .9 1 .6 0 1.1-.6 1.7-1.9l.9.3c-.6 1.7-1.5 2.7-2.8 2.7-1.3 0-2.2-.8-2.2-1.9v-.5c-1.1 1.4-2.6 2.5-4.4 2.5-2.4-.2-4.3-2.1-4.3-5.2zm10-2.6c0-2.2-1.2-3.7-3.4-3.7-2.9 0-5 3.1-5 6.2 0 2.3 1.1 3.7 3.2 3.7 3.2.1 5.2-3.5 5.2-6.2zM110.3 38.5H108l.3-1.3h3.8l-.8 3.3c1.6-2.2 3-3.5 4.1-3.5 1 0 1.5.6 1.5 1.3 0 .8-.6 1.4-1.4 1.4-.7 0-1.1-.4-1.3-1-1 .6-3.1 2.5-3.8 5.4l-1.3 5.4h-1.5l2.7-11zM117.9 43.7v.8c0 2.5 2.1 3.8 4.1 3.8a8 8 0 004-1.1l-.3 1.6c-1.3.6-2.3.9-3.9.9-2.8 0-5.4-1.8-5.4-5.1 0-4.1 3.2-7.6 6.8-7.6 2.8 0 4.5 1.7 4.5 4.3 0 .8-.2 1.5-.5 2.4h-9.3zm.2-1.3h7.8l.2-1.4c0-1.4-.9-2.7-3.1-2.7-2.1 0-4.1 1.8-4.9 4.1zM133.9 44.6c0-4.2 3-7.6 6.5-7.6 2.2 0 3.7 1.2 4 3.2l.7-3.1h1.5l-2.3 9.3-.2 1.2c0 .6.4 1 .9 1 .6 0 1.1-.6 1.7-1.9l.9.3c-.6 1.7-1.5 2.7-2.8 2.7-1.3 0-2.2-.8-2.2-1.9v-.5c-1.1 1.4-2.6 2.5-4.4 2.5-2.5-.2-4.3-2.1-4.3-5.2zm10-2.6c0-2.2-1.2-3.7-3.4-3.7-2.9 0-5 3.1-5 6.2 0 2.3 1.1 3.7 3.2 3.7 3.2.1 5.2-3.5 5.2-6.2z" class="st7"/></g></g></svg>
